<?xml version="1.0" encoding="UTF-8"?>
<!DOCTYPE svg PUBLIC "-//W3C//DTD SVG 1.1//EN" "http://www.w3.org/Graphics/SVG/1.1/DTD/svg11.dtd">
<!-- Creator: CorelDRAW 2018 (64-Bit) -->
<svg xmlns="http://www.w3.org/2000/svg" xml:space="preserve" width="4in" height="4in" version="1.1" style="shape-rendering:geometricPrecision; text-rendering:geometricPrecision; image-rendering:optimizeQuality; fill-rule:evenodd; clip-rule:evenodd"
viewBox="0 0 4000 4000"
 xmlns:xlink="http://www.w3.org/1999/xlink">
 <defs>
  <style type="text/css">
   <![CDATA[
    .fil0 {fill:none}
    .fil2 {fill:#EAEDEC;fill-rule:nonzero}
    .fil1 {fill:#CE3D3C;fill-rule:nonzero}
    .fil15 {fill:#C5CECB;fill-rule:nonzero}
    .fil11 {fill:#434948;fill-rule:nonzero}
    .fil13 {fill:url(#id0)}
    .fil7 {fill:url(#id1)}
    .fil10 {fill:url(#id2)}
    .fil9 {fill:url(#id3)}
    .fil8 {fill:url(#id4)}
    .fil14 {fill:url(#id5)}
    .fil16 {fill:url(#id6)}
    .fil6 {fill:url(#id7)}
    .fil5 {fill:url(#id8)}
    .fil12 {fill:url(#id9)}
    .fil3 {fill:url(#id10)}
    .fil4 {fill:url(#id11)}
   ]]>
  </style>
  <linearGradient id="id0" gradientUnits="userSpaceOnUse" x1="2214.64" y1="1158.27" x2="2214.64" y2="2313.97">
   <stop offset="0" style="stop-opacity:1; stop-color:#EAEDEC"/>
   <stop offset="1" style="stop-opacity:1; stop-color:#4E5758"/>
  </linearGradient>
  <linearGradient id="id1" gradientUnits="userSpaceOnUse" x1="1995.61" y1="1158.27" x2="1995.61" y2="1724.16">
   <stop offset="0" style="stop-opacity:1; stop-color:#EAEDEC"/>
   <stop offset="0.439216" style="stop-opacity:1; stop-color:#C5CECB"/>
   <stop offset="1" style="stop-opacity:1; stop-color:#616969"/>
  </linearGradient>
  <linearGradient id="id2" gradientUnits="userSpaceOnUse" xlink:href="#id1" x1="1995.61" y1="1153.5" x2="1995.61" y2="2097.95">
  </linearGradient>
  <linearGradient id="id3" gradientUnits="userSpaceOnUse" xlink:href="#id1" x1="2237.34" y1="1153.5" x2="2237.34" y2="2097.95">
  </linearGradient>
  <linearGradient id="id4" gradientUnits="userSpaceOnUse" xlink:href="#id1" x1="2223.52" y1="1158.27" x2="2223.52" y2="1724.16">
  </linearGradient>
  <linearGradient id="id5" gradientUnits="userSpaceOnUse" xlink:href="#id0" x1="2628.15" y1="1158.38" x2="2628.15" y2="2314.04">
  </linearGradient>
  <linearGradient id="id6" gradientUnits="userSpaceOnUse" x1="2628.75" y1="1398" x2="2628.75" y2="1727.36">
   <stop offset="0" style="stop-opacity:1; stop-color:#C5CECB"/>
   <stop offset="1" style="stop-opacity:1; stop-color:#616969"/>
  </linearGradient>
  <linearGradient id="id7" gradientUnits="userSpaceOnUse" xlink:href="#id1" x1="1969.35" y1="2199.94" x2="1644.53" y2="2012.41">
  </linearGradient>
  <linearGradient id="id8" gradientUnits="userSpaceOnUse" xlink:href="#id1" x1="1992.16" y1="1752.25" x2="1769.39" y2="1565.32">
  </linearGradient>
  <linearGradient id="id9" gradientUnits="userSpaceOnUse" xlink:href="#id0" x1="2927.76" y1="1158.34" x2="2927.76" y2="2313.96">
  </linearGradient>
  <linearGradient id="id10" gradientUnits="userSpaceOnUse" xlink:href="#id1" x1="1134.17" y1="2191.54" x2="1134.17" y2="1533.11">
  </linearGradient>
  <linearGradient id="id11" gradientUnits="userSpaceOnUse" xlink:href="#id1" x1="1423.38" y1="1689.84" x2="1423.38" y2="1333.06">
  </linearGradient>
 </defs>
 <g id="Layer_x0020_1">
  <metadata id="CorelCorpID_0Corel-Layer"/>
  <rect class="fil0" x="-0" y="-0" width="4000" height="4000"/>
  <g id="_2960027700640">
   <path class="fil1" d="M1999.24 2658.37c-0.3,-101.28 81.31,-182.99 183.28,-183.16 99.46,0.17 181.16,81.88 183.15,183.16 -1.99,100.15 -83.69,181.86 -183.15,183.28 -101.97,-1.43 -183.59,-83.13 -183.28,-183.28zm183.28 115.76c55.04,-0.85 100.6,-52.57 101.17,-115.76 -0.57,-64.4 -46.14,-116.12 -101.17,-115.75 -57.42,-0.37 -103.1,51.35 -101.28,115.75 -1.81,63.19 43.86,114.91 101.28,115.76z"/>
   <polygon class="fil1" points="2572.98,2552.27 2572.98,2832 2495.89,2832 2495.89,2552.27 2384.96,2552.27 2384.96,2489.69 2679.09,2489.69 2679.09,2552.27 "/>
   <path class="fil1" d="M2770.64 2754.76l0 0 -28.85 77.25 -91.56 0 144.61 -342.31 96.37 0 136.5 334.05 0 8.26 -88.18 0 -28.94 -77.25 -139.96 0zm72.43 -57.79l48.15 0 -48.15 -125.4 -48.22 125.4 48.22 0z"/>
   <polygon class="fil1" points="1155.48,2552.27 1155.48,2832 1078.34,2832 1078.34,2552.27 972.29,2552.27 972.29,2489.69 1261.59,2489.69 1261.59,2552.27 "/>
   <path class="fil1" d="M1280.88 2658.37c0.15,-101.28 81.74,-182.99 183.13,-183.16 100.09,0.17 181.8,81.88 183.27,183.16 -1.47,100.15 -83.19,181.86 -183.27,183.28 -101.39,-1.43 -182.98,-83.13 -183.13,-183.28zm183.13 115.76c55.69,-0.85 101.22,-52.57 101.28,-115.76 -0.06,-64.4 -45.59,-116.12 -101.28,-115.75 -56.85,-0.37 -102.46,51.35 -101.13,115.75 -1.33,63.19 44.28,114.91 101.13,115.76z"/>
   <polygon class="fil1" points="1820.85,2832 1859.38,2832 1859.38,2701.78 1994.42,2489.69 1907.67,2489.69 1820.85,2634.26 1738.86,2489.69 1647.28,2489.69 1782.32,2701.78 1782.32,2832 "/>
   <path class="fil2" d="M2607.4 1391.46c1.33,3.68 2.55,7.46 3.51,11.24 5.48,21.76 4.35,43.12 -2.75,63.94 94.48,77.91 150.17,174 150.17,278.11 0,259.87 -348,470.58 -777.24,470.58 -429.27,0 -777.24,-210.71 -777.24,-470.58 0,-104.03 55.75,-200.2 150.11,-278.11 -7.04,-20.83 -8.17,-42.19 -2.7,-63.94 0.99,-3.86 2.61,-7.94 4.51,-12 -128.92,91.84 -207.08,212.22 -207.08,344.04 0,287.85 372.65,521.17 832.39,521.17 459.69,0 832.39,-233.32 832.39,-521.17 0,-131.54 -77.85,-251.64 -206.08,-343.28z"/>
   <path class="fil3" d="M2607.4 1391.46c1.33,3.68 2.55,7.46 3.51,11.24 5.48,21.76 4.35,43.12 -2.75,63.94 94.48,77.91 150.17,174 150.17,278.11 0,259.87 -348,470.58 -777.24,470.58 -429.27,0 -777.24,-210.71 -777.24,-470.58 0,-104.03 55.75,-200.2 150.11,-278.11 -7.04,-20.83 -8.17,-42.19 -2.7,-63.94 0.99,-3.86 2.61,-7.94 4.51,-12 -128.92,91.84 -207.08,212.22 -207.08,344.04 0,287.85 372.65,521.17 832.39,521.17 459.69,0 832.39,-233.32 832.39,-521.17 0,-131.54 -77.85,-251.64 -206.08,-343.28z"/>
   <path class="fil2" d="M2096.73 1581.99c-36.68,2.76 -75.35,4.26 -115.67,4.26 -40.28,0 -78.93,-1.5 -115.61,-4.26l-0.11 0 -23.98 17.42c44.23,3.87 90.93,6.05 139.72,6.05 48.8,0 95.5,-2.19 139.76,-6.05l-24.12 -17.42zm425.18 -182.6c-29.22,-96.57 -270.07,-167.5 -540.82,-167.5 -270.69,0 -511.54,70.93 -540.77,167.5 -25.36,83.79 113.09,161.32 331.51,192.08l-18.98 -23.09c-176.7,-30.08 -281.72,-94.2 -257.49,-162.37 29.36,-82.76 242.65,-142.71 485.7,-142.71 243.05,0 456.39,59.95 485.73,142.71 24.2,68.17 -80.78,132.29 -257.52,162.37l-18.92 23.09c218.35,-30.76 356.9,-108.29 331.56,-192.08z"/>
   <path class="fil4" d="M2096.73 1581.99c-36.68,2.76 -75.35,4.26 -115.67,4.26 -40.28,0 -78.93,-1.5 -115.61,-4.26l-0.11 0 -23.98 17.42c44.23,3.87 90.93,6.05 139.72,6.05 48.8,0 95.5,-2.19 139.76,-6.05l-24.12 -17.42zm425.18 -182.6c-29.22,-96.57 -270.07,-167.5 -540.82,-167.5 -270.69,0 -511.54,70.93 -540.77,167.5 -25.36,83.79 113.09,161.32 331.51,192.08l-18.98 -23.09c-176.7,-30.08 -281.72,-94.2 -257.49,-162.37 29.36,-82.76 242.65,-142.71 485.7,-142.71 243.05,0 456.39,59.95 485.73,142.71 24.2,68.17 -80.78,132.29 -257.52,162.37l-18.92 23.09c218.35,-30.76 356.9,-108.29 331.56,-192.08z"/>
   <path class="fil2" d="M1865.74 1581.99c20.29,-112.71 64.28,-183.16 115.33,-183.16 51.1,0 95.07,70.45 115.38,183.16l0.4 0 23.72 17.22c-20.03,-148.87 -74.9,-243.99 -139.48,-243.99 -64.63,0 -119.47,95.13 -139.47,243.99l23.72 -17.22 0.4 0z"/>
   <path class="fil5" d="M1865.74 1581.99c20.29,-112.71 64.28,-183.16 115.33,-183.16 51.1,0 95.07,70.45 115.38,183.16l0.4 0 23.72 17.22c-20.03,-148.87 -74.9,-243.99 -139.48,-243.99 -64.63,0 -119.47,95.13 -139.47,243.99l23.72 -17.22 0.4 0z"/>
   <path class="fil2" d="M2127.77 1683.56l-19.41 35.09c0,2.56 0.11,5.19 0.11,7.85 0,186.85 -57.15,328.53 -127.42,328.53 -70.33,0 -127.36,-141.69 -127.36,-328.53 0,-2.95 0.06,-5.86 0.11,-8.7l-19.43 -34.24c-0.57,14.02 -0.85,28.2 -0.85,42.75 0,211.84 66.05,372.31 147.56,372.31 81.51,0 147.62,-160.47 147.62,-372.31 0,-14.55 -0.37,-28.73 -0.94,-42.75z"/>
   <path class="fil6" d="M2127.77 1683.56l-19.41 35.09c0,2.56 0.11,5.19 0.11,7.85 0,186.85 -57.15,328.53 -127.42,328.53 -70.33,0 -127.36,-141.69 -127.36,-328.53 0,-2.95 0.06,-5.86 0.11,-8.7l-19.43 -34.24c-0.57,14.02 -0.85,28.2 -0.85,42.75 0,211.84 66.05,372.31 147.56,372.31 81.51,0 147.62,-160.47 147.62,-372.31 0,-14.55 -0.37,-28.73 -0.94,-42.75z"/>
   <path class="fil2" d="M1772.14 1591.55c27.92,-206.91 110.9,-359.65 208.95,-359.65 -105.11,0 -194.7,135.33 -227.96,336.88l18.72 22.78 0.28 0z"/>
   <path class="fil7" d="M1772.14 1591.55c27.92,-206.91 110.9,-359.65 208.95,-359.65 -105.11,0 -194.7,135.33 -227.96,336.88l18.72 22.78 0.28 0z"/>
   <path class="fil2" d="M2190.07 1591.55l0.2 0 18.72 -22.78c-33.19,-201.55 -122.85,-336.88 -227.91,-336.88 98.05,0 181.09,152.75 208.98,359.65z"/>
   <path class="fil8" d="M2190.07 1591.55l0.2 0 18.72 -22.78c-33.19,-201.55 -122.85,-336.88 -227.91,-336.88 98.05,0 181.09,152.75 208.98,359.65z"/>
   <path class="fil2" d="M2222.04 1703.43l-23.83 -28.46 -0.2 0c1.33,22.61 2.1,45.59 2.1,68.93 0,282.77 -98.08,512 -219.03,512 135.61,0 241.73,-212.61 241.73,-512 0,-13.7 -0.28,-27.14 -0.77,-40.48z"/>
   <path class="fil9" d="M2222.04 1703.43l-23.83 -28.46 -0.2 0c1.33,22.61 2.1,45.59 2.1,68.93 0,282.77 -98.08,512 -219.03,512 135.61,0 241.73,-212.61 241.73,-512 0,-13.7 -0.28,-27.14 -0.77,-40.48z"/>
   <path class="fil2" d="M1762.12 1743.9c0,-23.34 0.77,-46.32 2.07,-68.93l-0.17 0 -23.89 28.37c-0.49,13.42 -0.8,26.86 -0.8,40.56 0,299.39 106.19,512 241.75,512 -120.89,0 -218.96,-229.23 -218.96,-512z"/>
   <path class="fil10" d="M1762.12 1743.9c0,-23.34 0.77,-46.32 2.07,-68.93l-0.17 0 -23.89 28.37c-0.49,13.42 -0.8,26.86 -0.8,40.56 0,299.39 106.19,512 241.75,512 -120.89,0 -218.96,-229.23 -218.96,-512z"/>
   <path class="fil11" d="M2608.16 1466.64c36.12,29.79 66.59,62.3 90.43,96.83 -8.43,-56.17 -30.84,-107.81 -63.55,-151.22 -9,-7.09 -18.16,-14.1 -27.63,-20.8 1.33,3.68 2.55,7.46 3.51,11.24 5.48,21.76 4.35,43.12 -2.75,63.94z"/>
   <path class="fil11" d="M1353.96 1466.64c-7.04,-20.83 -8.17,-42.19 -2.7,-63.94 0.99,-3.86 2.61,-7.94 4.51,-12 -9.85,7.09 -19.35,14.27 -28.63,21.56 -32.66,43.41 -55.07,95.04 -63.55,151.22 23.83,-34.53 54.24,-67.04 90.36,-96.83z"/>
   <path class="fil2" d="M1048.89 1736.15c0,-319.07 417.33,-577.81 932.2,-577.81 514.81,0 932.15,258.74 932.15,577.81 0,319.17 -417.34,577.8 -932.15,577.8 -514.87,0 -932.2,-258.63 -932.2,-577.8zm932.2 519.76c459.69,0 832.39,-233.32 832.39,-521.17 0,-287.87 -372.7,-521.28 -832.39,-521.28 -459.74,0 -832.42,233.41 -832.42,521.28 0,287.85 372.68,521.17 832.42,521.17z"/>
   <path class="fil12" d="M1048.89 1736.15c0,-319.07 417.33,-577.81 932.2,-577.81 514.81,0 932.15,258.74 932.15,577.81 0,319.17 -417.34,577.8 -932.15,577.8 -514.87,0 -932.2,-258.63 -932.2,-577.8zm932.2 519.76c459.69,0 832.39,-233.32 832.39,-521.17 0,-287.87 -372.7,-521.28 -832.39,-521.28 -459.74,0 -832.42,233.41 -832.42,521.28 0,287.85 372.68,521.17 832.42,521.17z"/>
   <path class="fil2" d="M1762.12 1743.9c0,-279.81 98.08,-512 218.96,-512 120.95,0 219.03,232.19 219.03,512 0,282.77 -98.08,512 -219.03,512 -120.94,0 -218.96,-229.23 -218.96,-512zm218.96 354.72c81.51,0 147.62,-160.47 147.62,-372.22 0,-219.76 -66.11,-371.17 -147.62,-371.17 -81.5,0 -147.56,151.42 -147.56,371.17 0,211.75 66.05,372.22 147.56,372.22z"/>
   <path class="fil13" d="M1762.12 1743.9c0,-279.81 98.08,-512 218.96,-512 120.95,0 219.03,232.19 219.03,512 0,282.77 -98.08,512 -219.03,512 -120.94,0 -218.96,-229.23 -218.96,-512zm218.96 354.72c81.51,0 147.62,-160.47 147.62,-372.22 0,-219.76 -66.11,-371.17 -147.62,-371.17 -81.5,0 -147.56,151.42 -147.56,371.17 0,211.75 66.05,372.22 147.56,372.22z"/>
   <path class="fil2" d="M1351.27 1402.69c24.03,-95.13 314.59,-233.57 629.82,-233.57 315.21,0 595.78,98.92 629.82,233.57 38.1,150.93 -241.91,287.5 -629.82,287.5 -387.97,0 -667.98,-136.57 -629.82,-287.5zm629.82 -170.8c-270.69,0 -511.54,70.93 -540.77,167.5 -32.74,108.19 207.67,206.07 540.77,206.07 333.17,0 573.54,-97.88 540.82,-206.07 -29.22,-96.57 -270.07,-167.5 -540.82,-167.5z"/>
   <path class="fil14" d="M1351.27 1402.69c24.03,-95.13 314.59,-233.57 629.82,-233.57 315.21,0 595.78,98.92 629.82,233.57 38.1,150.93 -241.91,287.5 -629.82,287.5 -387.97,0 -667.98,-136.57 -629.82,-287.5zm629.82 -170.8c-270.69,0 -511.54,70.93 -540.77,167.5 -32.74,108.19 207.67,206.07 540.77,206.07 333.17,0 573.54,-97.88 540.82,-206.07 -29.22,-96.57 -270.07,-167.5 -540.82,-167.5z"/>
   <path class="fil15" d="M1834.1 1683.28l0.17 0.12 20 35.26c40.71,3.49 83.04,5.47 126.81,5.47 43.98,0 86.42,-1.98 127.39,-5.55l19.46 -35.18 0.11 -0.12c-46.81,4.46 -95.89,6.92 -146.96,6.92 -51.07,0 -100.17,-2.46 -146.99,-6.92zm780.1 -247.96c-4.99,107.92 -170.88,203.53 -416.07,239.56l0.09 0.09 23.92 28.56c239.92,-43.12 397.75,-149.06 392.07,-268.21zm-1266.22 0c-5.67,119.27 152.15,225.09 392.02,268.21l23.98 -28.56 0.06 -0.09c-245.24,-36.03 -411,-131.64 -416.05,-239.56z"/>
   <path class="fil16" d="M1834.1 1683.28l0.17 0.12 20 35.26c40.71,3.49 83.04,5.47 126.81,5.47 43.98,0 86.42,-1.98 127.39,-5.55l19.46 -35.18 0.11 -0.12c-46.81,4.46 -95.89,6.92 -146.96,6.92 -51.07,0 -100.17,-2.46 -146.99,-6.92zm780.1 -247.96c-4.99,107.92 -170.88,203.53 -416.07,239.56l0.09 0.09 23.92 28.56c239.92,-43.12 397.75,-149.06 392.07,-268.21zm-1266.22 0c-5.67,119.27 152.15,225.09 392.02,268.21l23.98 -28.56 0.06 -0.09c-245.24,-36.03 -411,-131.64 -416.05,-239.56z"/>
  </g>
 </g>
</svg>
